<?xml version="1.0" encoding="utf-8"?>
<!-- Generator: Adobe Illustrator 26.0.1, SVG Export Plug-In . SVG Version: 6.00 Build 0)  -->
<svg version="1.1" id="Layer_1" xmlns="http://www.w3.org/2000/svg" xmlns:xlink="http://www.w3.org/1999/xlink" x="0px" y="0px"
	 viewBox="0 0 1000 1000" style="enable-background:new 0 0 1000 1000;" xml:space="preserve">
<style type="text/css">
	.st0{fill:#5F0F40;}
	.st1{fill:#FFFFFF;}
</style>
<rect x="0" class="st0" width="1000" height="1000"/>
<path class="st1" d="M741.12,476.16c1.13,52.95-15.5,100.26-47.28,141.99c-46.99,61.69-95.15,122.48-142.18,184.14
	c-7.42,9.73-12.24,8.17-20.09,1.7c-14.96-12.32-29.97-24.73-46.02-35.53c-11.88-8-10.62-13.9-2.55-24.11
	c46.2-58.46,92.22-117.09,137.37-176.37c65.66-86.21,26.34-208.65-76.41-239.74c-71.9-21.76-149.35,13.52-182.15,82.96
	c-30.91,65.46-8.11,146.82,52.42,188.61c9.27,6.4,25.59,8.91,26.73,18.98c1.23,10.85-12.53,19.49-19.43,29.32
	c-3.82,5.45-8.07,10.61-12.24,15.81c-21.12,26.37-21.14,26.36-49.61,6.07c-93.22-66.44-126.55-189.23-79.98-294.67
	c45.5-103.04,160.77-160.54,274.05-136.7C662.62,261.54,740.79,360.64,741.12,476.16z"/>
<path class="st1" d="M562.55,473.21c-0.17,36.92-28.98,66.42-64.88,66.45c-36.77,0.03-66.03-29.81-66.11-67.42
	c-0.08-37.2,29.77-67.62,66.12-67.4C534.41,405.07,562.72,434.91,562.55,473.21z"/>
</svg>
